<svg id="Layer_1" data-name="Layer 1" xmlns="http://www.w3.org/2000/svg" viewBox="0 0 52 52"><defs><style>.cls-1,.cls-7{fill:#d4a934;}.cls-2,.cls-3{fill:#ebbd3f;}.cls-3{font-size:8.9px;}.cls-3,.cls-7{font-family:BebasNeueBold, Bebas Neue;font-weight:700;}.cls-4{fill:#32316b;}.cls-5{fill:#fffaef;}.cls-6{fill:#8381ec;}.cls-7{font-size:6.94px;}</style></defs><title>BankingLogo</title><rect class="cls-1" x="12.18" y="9.76" width="34.68" height="20.6" transform="translate(-6.1 17.85) rotate(-30.64)"/><rect class="cls-2" x="14.26" y="11.31" width="30.68" height="17.16" transform="matrix(0.86, -0.51, 0.51, 0.86, -6, 17.86)"/><path class="cls-1" d="M34.33,5.24s2.95,6.54,8.49,3.25L39.19,2.36Z"/><path class="cls-1" d="M14.21,17.15s4.32,5.73-1.23,9L9.35,20Z"/><path class="cls-1" d="M24.55,34.6s-2.95-6.54-8.49-3.25l3.63,6.13Z"/><path class="cls-1" d="M44.66,22.68s-4.32-5.73,1.23-9l3.63,6.13Z"/><circle class="cls-1" cx="29.37" cy="20.4" r="6.96" transform="translate(-6.3 17.82) rotate(-30.64)"/><circle class="cls-1" cx="38.1" cy="14.77" r="1.75" transform="translate(-2.21 21.48) rotate(-30.64)"/><circle class="cls-1" cx="20.29" cy="25.32" r="1.75" transform="translate(-10.07 13.88) rotate(-30.64)"/><text class="cls-3" transform="translate(26.27 25.64) rotate(-30.64)">GHS</text><rect class="cls-4" x="9.3" y="20.42" width="35.19" height="28.61"/><rect class="cls-4" x="26.89" y="20.42" width="17.65" height="28.61"/><path class="cls-5" d="M40,47.36H37.37a.49.49,0,1,1,0-1H40a.49.49,0,0,1,0,1Zm-5.26,0H32.12a.49.49,0,0,1,0-1h2.63a.49.49,0,0,1,0,1Zm-5.26,0H26.86a.49.49,0,0,1,0-1h2.63a.49.49,0,0,1,0,1Zm-5.26,0H21.6a.49.49,0,0,1,0-1h2.63a.49.49,0,0,1,0,1Zm-5.26,0H16.35a.49.49,0,0,1,0-1H19a.49.49,0,0,1,0,1Zm-5.26,0H11.09a.49.49,0,1,1,0-1h2.63a.49.49,0,1,1,0,1Zm28-.89a.49.49,0,0,1-.49-.49V43.35a.49.49,0,0,1,1,0V46A.49.49,0,0,1,41.73,46.47Zm0-5.26a.49.49,0,0,1-.49-.49V38.09a.49.49,0,0,1,1,0v2.63A.49.49,0,0,1,41.73,41.21Zm0-5.26a.49.49,0,0,1-.49-.49V32.84a.49.49,0,0,1,1,0v2.63A.49.49,0,0,1,41.73,36Zm0-5.26a.49.49,0,0,1-.49-.49V27.58a.49.49,0,0,1,1,0v2.63A.49.49,0,0,1,41.73,30.7Zm0-5.26a.49.49,0,0,1-.49-.49V23.77h-.46a.49.49,0,0,1,0-1h1a.49.49,0,0,1,.49.49V25A.49.49,0,0,1,41.73,25.45Zm-3.58-1.67H35.52a.49.49,0,1,1,0-1h2.63a.49.49,0,1,1,0,1Zm-5.26,0H30.27a.49.49,0,1,1,0-1H32.9a.49.49,0,1,1,0,1Zm-5.26,0H25a.49.49,0,0,1,0-1h2.63a.49.49,0,0,1,0,1Zm-5.26,0H19.76a.49.49,0,0,1,0-1h2.63a.49.49,0,0,1,0,1Zm-5.26,0H14.5a.49.49,0,0,1,0-1h2.63a.49.49,0,0,1,0,1Zm-5.26,0H9.24a.49.49,0,0,1,0-1h2.63a.49.49,0,0,1,0,1Z"/><rect class="cls-6" x="33.46" y="30.67" width="14.96" height="10.21"/><circle class="cls-4" cx="38.09" cy="35.78" r="2.38"/><circle class="cls-1" cx="10.07" cy="41.31" r="7.82"/><circle class="cls-2" cx="10.07" cy="41.31" r="6.29"/><text class="cls-7" transform="translate(5.77 43.88)">GHs</text></svg>